<mxfile host="app.diagrams.net" modified="2024-05-25T08:08:22.393Z" agent="Mozilla/5.0 (Macintosh; Intel Mac OS X 10_15_7) AppleWebKit/537.36 (KHTML, like Gecko) Chrome/125.0.0.0 Safari/537.36 Edg/125.0.0.0" version="24.0.2" etag="rZlHSIEKw32kKzCFqP5h" type="github">
  <diagram name="第 1 页" id="YoWfGW_Q1pRVEKNJeyMN">
    <mxGraphModel>
      <root>
        <mxCell id="0" />
        <mxCell id="1" parent="0" />
      </root>
    </mxGraphModel>
  </diagram>
</mxfile>
